# xmcd
#
# Track frame offsets:
# 150
# 11325
# 21198
# 30124
# 43030
# 59739
# 66416
# 79556
# 86565
# 106326
# 120143
#
# Disc length: 1747 seconds
#
#
# Revision: 0
# Processed by: cddbd v1.5.1PL2 Copyright (c) Steve Scherf et al.
# Submitted via: FreeRIP 2.35 
#
DISCID=7b06d10b
DTITLE=De Paul - Lokalisierung 1
DYEAR=1900
DGENRE=Blues
TTITLE0=De Midleif-Blues
TTITLE1=De Jungeselle-Blues
TTITLE2=Es Laewe is goar nit so
TTITLE3=Oans is kloar
TTITLE4=Gestern wor ich blau (un heit heb isch de Blues)
TTITLE5=Ohne Dich
TTITLE6=Oh Vadder
TTITLE7=Was werd moije
TTITLE8=Kloapariserchikagomissisippi-Blues
TTITLE9=Mach´s gut
TTITLE10=Blous de Blues
EXTD=
EXTT0=
EXTT1=
EXTT2=
EXTT3=
EXTT4=
EXTT5=
EXTT6=
EXTT7=
EXTT8=
EXTT9=
EXTT10=
PLAYORDER=
